<svg width="224" height="37" viewBox="0 0 224 37" fill="none" xmlns="http://www.w3.org/2000/svg">
<path d="M0.828125 1.54688C3.39062 1.67187 6.625 1.73438 10.5312 1.73438C21.5781 15.5781 27.5156 22.9531 28.3438 23.8594C29.1719 24.75 29.5859 25.1953 29.5859 25.1953H29.7734C29.8359 22.1953 29.8672 19.7812 29.8672 17.9531C29.8672 14.3438 29.7891 10.1016 29.6328 5.22656C29.6016 3.82031 27.8672 2.96094 24.4297 2.64844C24.3672 2.30469 24.3359 2.09375 24.3359 2.01562C24.3359 1.89063 24.3672 1.73438 24.4297 1.54688C26.9453 1.64062 29.1719 1.6875 31.1094 1.6875C32.3594 1.6875 34.4531 1.64062 37.3906 1.54688C37.4531 1.73438 37.4844 1.89063 37.4844 2.01562C37.4844 2.26563 37.4531 2.47656 37.3906 2.64844C33.9688 2.96094 32.2422 3.82031 32.2109 5.22656C32.0234 10.1172 31.9297 14.9375 31.9297 19.6875C31.9297 26.9531 32.0078 32.4219 32.1641 36.0938L31.7422 36.1406L8.44531 7.47656H8.21094C8.11719 11.5234 8.07031 15.6094 8.07031 19.7344C8.07031 23.3594 8.14844 27.5938 8.30469 32.4375C8.33594 33.8594 10.0625 34.7266 13.4844 35.0391C13.5625 35.3047 13.6016 35.5156 13.6016 35.6719C13.6016 35.8281 13.5625 35.9844 13.4844 36.1406C11 36.0469 8.78125 36 6.82812 36C5.57812 36 3.48438 36.0469 0.546875 36.1406C0.46875 35.9844 0.429688 35.8281 0.429688 35.6719C0.429688 35.4062 0.46875 35.1953 0.546875 35.0391C4 34.7109 5.72656 33.8438 5.72656 32.4375C5.91406 27.5625 6.00781 22.75 6.00781 18C6.00781 12.8438 5.94531 8.36719 5.82031 4.57031C4.50781 3.42969 2.84375 2.78906 0.828125 2.64844C0.734375 2.44531 0.6875 2.26563 0.6875 2.10938C0.6875 1.875 0.734375 1.6875 0.828125 1.54688ZM58.5177 23.5781H45.7443C45.6818 24.5156 45.6506 25.3438 45.6506 26.0625C45.6974 28.3906 46.3771 30.2578 47.6896 31.6641C49.0021 33.0547 50.7599 33.75 52.9631 33.75C53.5568 33.75 54.1115 33.6875 54.6271 33.5625C55.1427 33.4219 55.5646 33.2656 55.8927 33.0938C56.2365 32.9219 56.5881 32.6719 56.9474 32.3438C57.3068 32.0156 57.5646 31.7578 57.7209 31.5703C57.8927 31.3672 58.1193 31.0703 58.4006 30.6797C58.6818 30.2734 58.8693 30.0156 58.9631 29.9062C59.3381 29.9844 59.6427 30.1562 59.8771 30.4219C59.0959 32.5156 57.8849 34.0859 56.2443 35.1328C54.6037 36.1641 52.8224 36.6797 50.9006 36.6797C49.9474 36.6797 49.0177 36.5547 48.1115 36.3047C47.2209 36.0703 46.3537 35.6797 45.5099 35.1328C44.6662 34.5859 43.9318 33.9141 43.3068 33.1172C42.6818 32.3047 42.1818 31.2969 41.8068 30.0938C41.4318 28.875 41.2443 27.5312 41.2443 26.0625C41.2443 22.7656 42.2521 20.0469 44.2677 17.9062C46.2834 15.7656 48.7599 14.6953 51.6974 14.6953C52.9943 14.6953 54.1193 14.8828 55.0724 15.2578C56.0412 15.6172 56.7912 16.1094 57.3224 16.7344C57.8693 17.3594 58.2677 18.0469 58.5177 18.7969C58.7834 19.5312 58.9162 20.3203 58.9162 21.1641C58.9162 21.9453 58.7834 22.75 58.5177 23.5781ZM51.1349 16.2188C50.0568 16.2188 49.0334 16.6953 48.0646 17.6484C47.1115 18.6016 46.424 20.0469 46.0021 21.9844H54.4396C54.5959 21.3906 54.674 20.875 54.674 20.4375C54.674 19.2188 54.3927 18.2109 53.8302 17.4141C53.2677 16.6172 52.3693 16.2188 51.1349 16.2188ZM61.6449 15.2109C63.7074 15.3047 65.7074 15.3516 67.6449 15.3516C69.098 15.3516 70.8324 15.3047 72.848 15.2109C72.9105 15.4609 72.9417 15.6562 72.9417 15.7969C72.9417 15.8906 72.9105 16.0625 72.848 16.3125C72.4574 16.3438 72.1292 16.3828 71.8636 16.4297C71.6136 16.4609 71.3402 16.5234 71.0433 16.6172C70.7464 16.6953 70.5199 16.8203 70.3636 16.9922C70.223 17.1641 70.1527 17.375 70.1527 17.625C70.1527 17.7656 70.1683 17.9062 70.1996 18.0469C70.2464 18.1719 70.2933 18.2891 70.3402 18.3984C70.4027 18.4922 70.4339 18.5547 70.4339 18.5859L74.0433 23.625L77.8402 18.5859C78.1839 18.1016 78.3558 17.7656 78.3558 17.5781C78.3558 16.7812 77.5589 16.3594 75.9652 16.3125C75.9027 16.0625 75.8714 15.8906 75.8714 15.7969C75.8714 15.6562 75.9027 15.4609 75.9652 15.2109C77.7933 15.3047 78.9261 15.3516 79.3636 15.3516C80.6761 15.3516 82.3402 15.3047 84.3558 15.2109C84.4183 15.3984 84.4496 15.5625 84.4496 15.7031C84.4496 15.7969 84.4183 16 84.3558 16.3125C83.6683 16.3438 83.0277 16.5 82.4339 16.7812C81.8402 17.0469 81.3949 17.3047 81.098 17.5547C80.8167 17.8047 80.4652 18.1484 80.0433 18.5859L75.0511 24.9609L80.6996 32.7891C81.0746 33.2422 81.4339 33.6172 81.7777 33.9141C82.1371 34.2109 82.5121 34.4375 82.9027 34.5938C83.2933 34.7344 83.5902 34.8281 83.7933 34.875C84.0121 34.9219 84.348 34.9766 84.8011 35.0391C84.8636 35.1641 84.8949 35.3438 84.8949 35.5781C84.8949 35.7969 84.8636 35.9844 84.8011 36.1406C82.7386 36.0469 80.7386 36 78.8011 36C77.348 36 75.6136 36.0469 73.598 36.1406C73.5355 35.8906 73.5042 35.7031 73.5042 35.5781C73.5042 35.4688 73.5355 35.2891 73.598 35.0391C74.1449 34.9922 74.5746 34.9453 74.8871 34.8984C75.2152 34.8516 75.5277 34.7344 75.8246 34.5469C76.1371 34.3438 76.2933 34.0781 76.2933 33.75C76.2933 33.4219 76.1996 33.1016 76.0121 32.7891L72.1214 27.3984L67.8558 32.7891C67.4964 33.2266 67.3167 33.5625 67.3167 33.7969C67.3167 34.5781 68.1136 34.9922 69.7074 35.0391C69.7855 35.2422 69.8246 35.4219 69.8246 35.5781C69.8246 35.75 69.7855 35.9375 69.7074 36.1406C67.9261 36.0469 66.7933 36 66.3089 36C64.9964 36 63.3324 36.0469 61.3167 36.1406C61.2542 35.9531 61.223 35.7969 61.223 35.6719C61.223 35.5625 61.2542 35.3516 61.3167 35.0391C62.0042 35.0078 62.6449 34.8594 63.2386 34.5938C63.8324 34.3281 64.2777 34.0703 64.5746 33.8203C64.8871 33.5547 65.2386 33.2109 65.6292 32.7891L71.1136 26.0156L65.7464 18.5859C65.3714 18.1328 65.0042 17.7578 64.6449 17.4609C64.3011 17.1641 63.9261 16.9453 63.5199 16.8047C63.1292 16.6484 62.8324 16.5469 62.6292 16.5C62.4417 16.4531 62.1136 16.3906 61.6449 16.3125C61.5824 16.1875 61.5511 16.0156 61.5511 15.7969C61.5511 15.5625 61.5824 15.3672 61.6449 15.2109ZM92.7564 10.7109C92.9126 10.6484 93.0923 10.6172 93.2954 10.6172C93.4986 10.6172 93.7095 10.6484 93.9283 10.7109V15.8438H101.03C101.124 16.0781 101.17 16.3672 101.17 16.7109C101.17 17.0078 101.124 17.2812 101.03 17.5312H93.9283V30.0469C93.9283 32.5156 95.0611 33.75 97.3267 33.75C98.1861 33.75 98.9204 33.5859 99.5298 33.2578C100.155 32.9297 100.842 32.4375 101.592 31.7812C101.983 31.8281 102.241 32.0156 102.366 32.3438C101.678 33.5781 100.663 34.6094 99.3189 35.4375C97.9751 36.2656 96.4986 36.6797 94.8892 36.6797C91.1079 36.6797 89.2173 34.3906 89.2173 29.8125V17.5312H86.3345C86.272 17.25 86.2408 17.0703 86.2408 16.9922C86.2408 16.9766 86.272 16.7969 86.3345 16.4531C87.0845 16.0781 87.6548 15.7734 88.0454 15.5391C88.4517 15.2891 88.9595 14.9375 89.5689 14.4844C90.1939 14.0312 90.7564 13.5 91.2564 12.8906C91.772 12.2656 92.272 11.5391 92.7564 10.7109ZM118.136 1.54688C119.839 1.60938 121.964 1.65625 124.511 1.6875C127.058 1.71875 130.05 1.73438 133.487 1.73438C136.925 1.73438 139.917 1.71875 142.464 1.6875C145.026 1.65625 147.167 1.60938 148.886 1.54688C148.979 2.21875 149.097 2.86719 149.237 3.49219C149.378 4.10156 149.612 4.78125 149.94 5.53125L150.643 7.125L152.354 10.4531C152.245 10.7031 151.972 10.9141 151.534 11.0859C151.003 10.1016 150.354 9.16406 149.589 8.27344C148.823 7.38281 147.847 6.57813 146.659 5.85938C145.487 5.14062 144.05 4.53906 142.347 4.05469C140.659 3.57031 138.62 3.24219 136.229 3.07031C136.151 5.02344 136.089 7.23438 136.042 9.70312C136.011 12.1562 135.995 14.8906 135.995 17.9062C135.995 20.9375 136.011 23.6875 136.042 26.1562C136.089 28.625 136.151 30.8359 136.229 32.7891C136.245 33.1641 136.393 33.4844 136.675 33.75C136.956 34 137.339 34.2109 137.823 34.3828C138.323 34.5547 138.893 34.6953 139.534 34.8047C140.19 34.8984 140.893 34.9766 141.643 35.0391C141.706 35.3047 141.737 35.5156 141.737 35.6719C141.737 35.8125 141.706 35.9688 141.643 36.1406C139.018 36.0469 136.3 36 133.487 36C130.69 36 127.972 36.0469 125.331 36.1406C125.268 35.9688 125.237 35.8125 125.237 35.6719C125.237 35.5156 125.268 35.3047 125.331 35.0391L126.456 34.9219C126.862 34.875 127.315 34.8125 127.815 34.7344C128.315 34.6406 128.776 34.5156 129.198 34.3594C129.636 34.2031 130.003 34.0078 130.3 33.7734C130.597 33.5391 130.745 33.25 130.745 32.9062V32.7891C130.823 29.9297 130.886 27.2656 130.933 24.7969C130.979 22.3281 131.003 20.0312 131.003 17.9062C131.003 15.7969 130.979 13.5156 130.933 11.0625C130.886 8.59375 130.823 5.92969 130.745 3.07031C128.495 3.19531 126.534 3.5 124.862 3.98438C123.206 4.45312 121.768 5.04687 120.55 5.76562C119.331 6.46875 118.315 7.28125 117.503 8.20312C116.69 9.10938 116.018 10.0703 115.487 11.0859C115.05 10.9141 114.776 10.7031 114.667 10.4531L115.722 8.46094L116.214 7.45312C116.417 7.03125 116.62 6.60156 116.823 6.16406C117.026 5.72656 117.214 5.27344 117.386 4.80469C117.573 4.32031 117.729 3.8125 117.854 3.28125C117.979 2.73438 118.073 2.15625 118.136 1.54688ZM155.997 20.6016C155.997 18.8828 156.778 17.4688 158.341 16.3594C159.919 15.25 161.778 14.6953 163.919 14.6953C166.544 14.6953 168.388 15.2188 169.45 16.2656C170.528 17.3125 171.067 19.0781 171.067 21.5625V31.2891C171.067 32.1641 171.388 32.6016 172.028 32.6016C172.544 32.6016 173.2 31.9766 173.997 30.7266C174.56 30.7734 174.942 31.0234 175.146 31.4766C175.036 31.6328 174.849 31.9141 174.583 32.3203C174.317 32.7266 174.122 33.0156 173.997 33.1875C173.872 33.3594 173.677 33.625 173.411 33.9844C173.146 34.3281 172.927 34.5859 172.755 34.7578C172.599 34.9297 172.38 35.1328 172.099 35.3672C171.833 35.6016 171.583 35.7812 171.349 35.9062C171.13 36.0156 170.872 36.1094 170.575 36.1875C170.278 36.2812 169.982 36.3281 169.685 36.3281C168.903 36.3281 168.255 36.0469 167.739 35.4844C167.239 34.9219 166.942 34.0547 166.849 32.8828C166.833 32.8984 166.591 33.125 166.122 33.5625C165.653 34 165.325 34.2969 165.138 34.4531C164.966 34.5938 164.63 34.8516 164.13 35.2266C163.646 35.5859 163.232 35.8438 162.888 36C162.544 36.1562 162.114 36.3047 161.599 36.4453C161.083 36.6016 160.575 36.6797 160.075 36.6797C159.278 36.6797 158.567 36.5703 157.942 36.3516C157.333 36.1328 156.857 35.8672 156.513 35.5547C156.169 35.2422 155.888 34.8828 155.669 34.4766C155.45 34.0547 155.302 33.6719 155.224 33.3281C155.161 32.9844 155.13 32.6406 155.13 32.2969C155.13 31.25 155.302 30.3672 155.646 29.6484C156.005 28.9297 156.661 28.2578 157.614 27.6328C158.583 27.0078 159.771 26.4531 161.177 25.9688C162.583 25.4844 164.474 24.9375 166.849 24.3281V21.0703C166.849 19.4922 166.497 18.3125 165.794 17.5312C165.107 16.75 164.177 16.3594 163.005 16.3594C161.958 16.3594 161.075 16.5703 160.357 16.9922C159.653 17.3984 159.224 17.875 159.067 18.4219C160.599 18.6562 161.364 19.4922 161.364 20.9297C161.364 21.5859 161.13 22.1641 160.661 22.6641C160.192 23.1641 159.536 23.4141 158.692 23.4141C157.989 23.4141 157.364 23.1719 156.817 22.6875C156.271 22.1875 155.997 21.4922 155.997 20.6016ZM166.849 30.7266V25.8281C165.411 26.1562 164.224 26.5156 163.286 26.9062C162.349 27.2812 161.63 27.6953 161.13 28.1484C160.646 28.6016 160.31 29.0703 160.122 29.5547C159.935 30.0234 159.841 30.5703 159.841 31.1953C159.841 31.9766 160.067 32.5938 160.521 33.0469C160.989 33.4844 161.56 33.7031 162.232 33.7031C163.794 33.7031 165.333 32.7109 166.849 30.7266ZM186.616 36.6797C185.851 36.6797 185.156 36.6172 184.531 36.4922C183.921 36.3672 183.445 36.2344 183.101 36.0938C182.773 35.9531 182.327 35.7422 181.765 35.4609C181.156 35.4609 180.257 35.6875 179.07 36.1406C178.866 36.0156 178.726 35.875 178.648 35.7188C178.726 35.4688 178.82 34.6172 178.929 33.1641C179.054 31.7109 179.116 30.4141 179.116 29.2734C179.32 29.1797 179.687 29.1328 180.218 29.1328C180.499 30.0391 180.788 30.8125 181.085 31.4531C181.398 32.0938 181.788 32.7188 182.257 33.3281C182.741 33.9219 183.32 34.375 183.991 34.6875C184.679 34.9844 185.46 35.1328 186.335 35.1328C187.695 35.1328 188.757 34.7812 189.523 34.0781C190.304 33.375 190.695 32.5781 190.695 31.6875C190.695 31.0156 190.585 30.4453 190.366 29.9766C190.148 29.5078 189.656 29.0156 188.89 28.5C188.14 27.9688 187.062 27.4453 185.656 26.9297C184.781 26.6172 184.038 26.3281 183.429 26.0625C182.82 25.7969 182.187 25.4688 181.531 25.0781C180.89 24.6875 180.374 24.2891 179.984 23.8828C179.593 23.4609 179.273 22.9609 179.023 22.3828C178.773 21.8047 178.648 21.1719 178.648 20.4844C178.648 19.9844 178.702 19.4922 178.812 19.0078C178.937 18.5078 179.163 17.9922 179.491 17.4609C179.835 16.9297 180.257 16.4688 180.757 16.0781C181.273 15.6719 181.952 15.3438 182.796 15.0938C183.656 14.8281 184.624 14.6953 185.702 14.6953C186.14 14.6953 186.523 14.7188 186.851 14.7656C187.195 14.8125 187.601 14.8984 188.07 15.0234C188.554 15.1328 188.82 15.1953 188.866 15.2109C189.21 15.1328 189.562 15.0312 189.921 14.9062C190.296 14.7812 190.507 14.7109 190.554 14.6953H191.163C191.538 16.9453 192.023 18.8594 192.616 20.4375C192.429 20.6406 192.124 20.7422 191.702 20.7422C190.406 19.1797 189.296 18.0391 188.374 17.3203C187.468 16.5859 186.437 16.2188 185.281 16.2188C184.374 16.2188 183.577 16.4219 182.89 16.8281C182.202 17.2344 181.859 17.8516 181.859 18.6797C181.859 19.7266 182.273 20.5469 183.101 21.1406C183.945 21.7344 185.499 22.4922 187.765 23.4141C188.812 23.8359 189.632 24.1875 190.226 24.4688C190.835 24.75 191.445 25.0859 192.054 25.4766C192.663 25.8672 193.109 26.2734 193.39 26.6953C193.687 27.1016 193.929 27.5938 194.116 28.1719C194.304 28.75 194.398 29.4219 194.398 30.1875C194.398 31.8438 193.632 33.3438 192.101 34.6875C190.585 36.0156 188.757 36.6797 186.616 36.6797ZM212.548 35.0391C213.923 34.8984 214.611 34.5312 214.611 33.9375C214.611 33.5938 214.439 33.2109 214.095 32.7891L207.697 24.5859H206.548C206.548 28.3203 206.595 31.0547 206.689 32.7891C206.689 33.1953 206.79 33.5469 206.994 33.8438C207.212 34.125 207.525 34.3438 207.931 34.5C208.353 34.6562 208.697 34.7734 208.962 34.8516C209.244 34.9141 209.611 34.9766 210.064 35.0391C210.158 35.2266 210.204 35.4219 210.204 35.625C210.204 35.8281 210.158 36 210.064 36.1406C208.001 36.0469 206.048 36 204.204 36C202.298 36 200.314 36.0469 198.251 36.1406C198.189 35.8906 198.158 35.7188 198.158 35.625C198.158 35.5469 198.189 35.3516 198.251 35.0391C198.767 34.9766 199.181 34.9141 199.494 34.8516C199.822 34.7734 200.228 34.6562 200.712 34.5C201.212 34.3438 201.587 34.125 201.837 33.8438C202.087 33.5469 202.22 33.1953 202.236 32.7891C202.298 31.2422 202.322 26.3672 202.306 18.1641C202.29 9.94531 202.283 5.34375 202.283 4.35938C201.392 3.84375 199.892 3.52344 197.783 3.39844C197.704 3.19531 197.665 3.00781 197.665 2.83594C197.665 2.67969 197.704 2.5 197.783 2.29688C200.751 2.01562 203.384 1.375 205.681 0.375C206.103 0.546875 206.376 0.757812 206.501 1.00781L206.548 23.0859H207.767L212.501 18.5859C212.798 18.2422 212.947 17.8906 212.947 17.5312C212.947 16.875 212.204 16.4688 210.72 16.3125C210.658 16.0625 210.626 15.8906 210.626 15.7969C210.626 15.6562 210.658 15.4609 210.72 15.2109C212.751 15.3047 214.369 15.3516 215.572 15.3516C216.884 15.3516 218.548 15.3047 220.564 15.2109C220.626 15.3984 220.658 15.5625 220.658 15.7031C220.658 15.7969 220.626 16 220.564 16.3125C219.173 16.4688 218.025 16.7031 217.119 17.0156C216.212 17.3125 215.392 17.8359 214.658 18.5859L210.931 22.3594L219.181 32.7891C220.119 34.0078 221.525 34.7578 223.4 35.0391C223.462 35.3516 223.494 35.5625 223.494 35.6719C223.494 35.7969 223.462 35.9531 223.4 36.1406C221.384 36.0469 219.564 36 217.939 36C216.361 36 214.564 36.0469 212.548 36.1406C212.486 35.8906 212.454 35.7031 212.454 35.5781C212.454 35.4688 212.486 35.2891 212.548 35.0391Z" fill="#0F172A"/>
</svg>
